<?xml version="1.0" encoding="iso-8859-1"?>
<!-- Uploaded to: SVG Repo, www.svgrepo.com, Generator: SVG Repo Mixer Tools -->
<svg height="800px" width="800px" version="1.1" id="Layer_1" xmlns="http://www.w3.org/2000/svg" xmlns:xlink="http://www.w3.org/1999/xlink" 
	 viewBox="0 0 512 512" xml:space="preserve">
<path style="fill:#E6E6E6;" d="M477.222,325.773v168.449H362.334h-64.224v-0.011l13.814-50.399l50.399-152.079h0.011
	L477.222,325.773z"/>
<path style="fill:#F95428;" d="M436.985,387.441v42.262h-39.423v-42.262c0-10.303,8.357-18.66,18.66-18.66h2.103
	C428.627,368.781,436.985,377.139,436.985,387.441z"/>
<path style="fill:#E6E6E6;" d="M213.891,494.21v0.011h-64.202h-114.9V325.773l114.889-34.04l48.652,106.215L213.891,494.21z"/>
<g>
	<polygon style="fill:#CCCCCC;" points="149.678,291.733 34.789,325.773 34.789,350.653 149.678,316.612 	"/>
	<polygon style="fill:#CCCCCC;" points="362.334,291.733 477.222,325.773 477.222,350.653 362.334,316.612 	"/>
</g>
<g>
	<path style="fill:#F95428;" d="M114.45,387.441v42.262H75.027v-42.262c0-10.303,8.357-18.66,18.66-18.66h2.103
		C106.093,368.781,114.45,377.139,114.45,387.441z"/>
	<path style="fill:#F95428;" d="M503.519,342.049c-0.798,0-1.608-0.113-2.412-0.352l-141.194-41.832
		c-4.492-1.331-7.053-6.05-5.724-10.541c1.331-4.492,6.053-7.055,10.541-5.724l141.194,41.832c4.492,1.331,7.053,6.05,5.724,10.541
		C510.556,339.661,507.179,342.049,503.519,342.049z"/>
	<path style="fill:#F95428;" d="M8.481,342.049c-3.66,0-7.037-2.387-8.129-6.075c-1.331-4.491,1.232-9.211,5.724-10.541
		L147.269,283.6c4.493-1.331,9.211,1.232,10.541,5.724c1.331,4.491-1.232,9.211-5.724,10.541L10.893,341.697
		C10.09,341.935,9.278,342.049,8.481,342.049z"/>
</g>
<g>
	<path style="fill:#B3B3B3;" d="M120.105,435.358H69.372v-47.917c0-13.407,10.908-24.314,24.314-24.314h2.103
		c13.407,0,24.314,10.908,24.314,24.314V435.358z M80.681,424.049h28.114v-36.607c0-7.171-5.834-13.005-13.005-13.005h-2.103
		c-7.171,0-13.005,5.834-13.005,13.005V424.049z"/>
	<path style="fill:#B3B3B3;" d="M442.639,435.358h-50.733v-47.917c0-13.407,10.908-24.314,24.314-24.314h2.103
		c13.407,0,24.314,10.908,24.314,24.314L442.639,435.358L442.639,435.358z M403.216,424.049h28.114v-36.607
		c0-7.171-5.834-13.005-13.005-13.005h-2.103c-7.171,0-13.005,5.834-13.005,13.005V424.049z"/>
</g>
<polygon style="fill:#F7B239;" points="285.988,39.279 264.486,39.279 264.486,17.777 247.523,17.777 247.523,39.279 226.02,39.279 
	226.02,56.243 247.523,56.243 247.523,90.287 264.486,90.287 264.486,56.243 285.988,56.243 "/>
<path style="fill:#F2F2F2;" d="M149.678,291.733V188.085L256.006,87.457l106.317,100.628v103.648V494.21H149.678L149.678,291.733
	L149.678,291.733z"/>
<polygon style="fill:#E6E6E6;" points="256.006,87.457 149.678,188.085 149.678,223.143 256.006,122.515 362.322,223.143 
	362.322,188.085 "/>
<path style="fill:#999999;" d="M298.109,396.104v98.106h-42.104V356.239h2.239C280.264,356.239,298.109,374.085,298.109,396.104z"/>
<circle style="fill:#F7B239;" cx="256.003" cy="181.227" r="28.668"/>
<path style="fill:#F95428;" d="M275.717,271.274v42.262h-39.423v-42.262c0-10.314,8.357-18.66,18.66-18.66h2.104
	C267.36,252.614,275.717,260.961,275.717,271.274z"/>
<path style="fill:#999999;" d="M256.006,356.239V494.21h-42.115v-98.106c0-22.019,17.846-39.864,39.864-39.864H256.006z"/>
<path style="fill:#F95428;" d="M138.925,206.745c-2.249,0-4.494-0.889-6.162-2.652c-3.22-3.402-3.072-8.77,0.33-11.991
	L256.007,75.779l122.9,116.325c3.402,3.22,3.55,8.588,0.33,11.991c-3.22,3.402-8.588,3.55-11.991,0.33L256.007,99.137
	L144.755,204.425C143.114,205.976,141.017,206.745,138.925,206.745z"/>
<g>
	<path style="fill:#B3B3B3;" d="M256.006,215.555c-18.926,0-34.323-15.397-34.323-34.323s15.397-34.323,34.323-34.323
		s34.323,15.397,34.323,34.323S274.931,215.555,256.006,215.555z M256.006,158.218c-12.69,0-23.014,10.324-23.014,23.014
		s10.324,23.014,23.014,23.014c12.69,0,23.014-10.324,23.014-23.014S268.696,158.218,256.006,158.218z"/>
	<path style="fill:#B3B3B3;" d="M281.372,319.191h-50.732v-47.917c0-13.407,10.908-24.314,24.314-24.314h2.104
		c13.407,0,24.314,10.908,24.314,24.314V319.191z M241.949,307.882h28.114v-36.607c0-7.171-5.834-13.005-13.005-13.005h-2.104
		c-7.171,0-13.005,5.834-13.005,13.005V307.882z"/>
	<path style="fill:#B3B3B3;" d="M258.245,350.019h-4.49c-25.411,0-46.084,20.673-46.084,46.084v98.117l12.44-0.011v-98.106
		c0-17.208,12.988-31.431,29.675-33.402v131.52l12.44-0.011V362.704c16.681,1.977,29.664,16.197,29.664,33.401v98.117l12.44-0.011
		v-98.106C304.329,370.694,283.656,350.019,258.245,350.019z"/>
</g>
</svg>