<svg fill="none" height="1em" width="1em" version="1.1" xmlns="http://www.w3.org/2000/svg" xmlns:xlink="http://www.w3.org/1999/xlink" viewBox="0 0 512 512" xml:space="preserve">
  <g>
    <g>
      <path d="M256,177.424c-20.116,0-36.482,16.365-36.482,36.482v53.416c0,4.455,3.612,8.068,8.068,8.068h56.828
			c4.456,0,8.068-3.612,8.068-8.068v-53.416C292.482,193.789,276.117,177.424,256,177.424z M276.347,259.254h-40.693v-45.349h0
			c0-11.218,9.127-20.346,20.346-20.346c11.219,0,20.346,9.127,20.346,20.346V259.254z" fill="currentColor" />
    </g>
  </g>
  <g>
    <g>
      <path d="M98.754,375.119c-18.206,0-33.018,14.812-33.018,33.018v46.905c0,4.456,3.612,8.068,8.068,8.068h49.901
			c4.455,0,8.068-3.612,8.068-8.068v-46.905C131.772,389.931,116.96,375.119,98.754,375.119z M115.637,446.974H81.872v-38.837
			c0-9.309,7.574-16.883,16.883-16.883c9.309,0,16.883,7.574,16.883,16.883V446.974z" fill="currentColor" />
    </g>
  </g>
  <g>
    <g>
      <path d="M413.247,375.119c-18.206,0-33.018,14.812-33.018,33.018v46.905c0,4.456,3.612,8.068,8.068,8.068h49.901
			c4.456,0,8.068-3.612,8.068-8.068v-46.905C446.265,389.931,431.452,375.119,413.247,375.119z M430.129,446.974h-33.766v-38.837
			c0-9.309,7.574-16.883,16.883-16.883s16.883,7.574,16.883,16.883V446.974z" fill="currentColor" />
    </g>
  </g>
  <g>
    <g>
      <path d="M492.107,341.454c-0.613-2.172-2.108-3.986-4.122-5.005l-41.986-21.242c-3.975-2.012-8.829-0.42-10.841,3.557
			c-2.011,3.976-0.419,8.829,3.557,10.841l34.159,17.283l-8.724,14.172l-2.63-1.331l-115.714-58.546v-18.587l62.446,31.595
			c3.976,2.013,8.829,0.419,10.841-3.556c2.012-3.976,0.42-8.829-3.557-10.842l-69.731-35.28v-80.19l27.855-14.137
			c2.501-1.269,4.164-3.745,4.391-6.542c0.226-2.796-1.014-5.509-3.279-7.164L264.068,75.513V41.148h16.554
			c4.456,0,8.068-3.612,8.068-8.068s-3.612-8.068-8.068-8.068h-16.554V8.068C264.068,3.612,260.456,0,256,0
			c-4.455,0-8.068,3.612-8.068,8.068v16.945h-16.554c-4.455,0-8.068,3.612-8.068,8.068s3.612,8.068,8.068,8.068h16.554v34.365
			l-110.705,80.97c-2.263,1.656-3.505,4.368-3.279,7.164c0.227,2.796,1.889,5.273,4.39,6.542l27.854,14.137v23.542
			c0,4.456,3.612,8.068,8.068,8.068c4.455,0,8.068-3.612,8.068-8.068v-24.4l37.117-27.148l36.554-26.736l34.409,25.167
			l39.262,28.717v86.007v36.669v189.721H304.63V365.724c0-4.455-3.612-8.068-8.068-8.068h-81.126c-4.456,0-8.068,3.612-8.068,8.068
			v130.141h-25.041V306.143v-36.669v-29.336c0-4.455-3.612-8.068-8.068-8.068s-8.068,3.612-8.068,8.068v24.377L24.016,336.449
			c-2.014,1.019-3.509,2.834-4.122,5.005c-0.613,2.172-0.29,4.501,0.893,6.423l16.015,26.016v130.039
			c0,4.456,3.612,8.068,8.068,8.068h129.392h41.171c0.002,0,0.003,0,0.005,0h81.126c0.002,0,0.003,0,0.005,0h41.171h129.392
			c4.456,0,8.068-3.612,8.068-8.068V373.893l16.014-26.016C492.396,345.955,492.719,343.626,492.107,341.454z M166.194,495.865
			H52.937V376.569l113.257-57.303V495.865z M166.194,301.184L50.48,359.729l-2.63,1.331l-8.724-14.172l127.068-64.29V301.184z
			 M288.495,495.865h-64.99V373.791h64.99V495.865z M311.441,150.142l-50.677-37.066c-2.837-2.074-6.69-2.074-9.525,0
			l-33.858,24.764l-43.883,32.096l-16.135-8.189L256,89.603l98.64,72.145l-16.135,8.189L311.441,150.142z M459.063,495.864H345.807
			V319.267l113.256,57.302V495.864z" fill="currentColor" />
    </g>
  </g>
</svg>